<svg fill="#416e47" viewBox="178.56 -766.0799999999999 627.84 574.0799999999999" xmlns="http://www.w3.org/2000/svg" style="max-height: 500px" width="627.84" height="574.0799999999999"><path d="M432-384q-10.2 0-17.1-6.9-6.9-6.9-6.9-17.1v-36h48v12h48v-36h-72q-10.2 0-17.1-6.9-6.9-6.9-6.9-17.1v-60q0-10.2 6.9-17.1 6.9-6.9 17.1-6.9h96q10.2 0 17.1 6.9 6.9 6.9 6.9 17.1v36h-48v-12h-48v36h72q10.2 0 17.1 6.9 6.9 6.9 6.9 17.1v60q0 10.2-6.9 17.1-6.9 6.9-17.1 6.9h-96Zm216 0q-10.2 0-17.1-6.9-6.9-6.9-6.9-17.1v-36h48v12h48v-36h-72q-10.2 0-17.1-6.9-6.9-6.9-6.9-17.1v-60q0-10.2 6.9-17.1 6.9-6.9 17.1-6.9h96q10.2 0 17.1 6.9 6.9 6.9 6.9 17.1v36h-48v-12h-48v36h72q10 1 17 7.61 7 6.62 7 16.39v60q0 10.2-6.9 17.1-6.9 6.9-17.1 6.9h-96Zm-432 0q-10.2 0-17.1-6.9-6.9-6.9-6.9-17.1v-144q0-10.2 6.9-17.1 6.9-6.9 17.1-6.9h96q10.2 0 17.1 6.9 6.9 6.9 6.9 17.1v36h-48v-12h-48v96h48v-12h48v36q0 10.2-6.9 17.1-6.9 6.9-17.1 6.9h-96Z"/></svg>