<svg fill="#416e47" viewBox="261.12 -698.88 422.4 407.03999999999996" xmlns="http://www.w3.org/2000/svg" style="max-height: 500px" width="422.4" height="407.03999999999996"><path d="M312-384q-10 0-17-7t-7-17v-72h48v48h48v-144h48v168q0 10-7 17t-17 7h-96Zm216 0q-10.2 0-17.1-6.9-6.9-6.9-6.9-17.1v-36h48v12h48v-36h-72q-10.2 0-17.1-6.9-6.9-6.9-6.9-17.1v-60q0-10.2 6.9-17.1 6.9-6.9 17.1-6.9h96q10.2 0 17.1 6.9 6.9 6.9 6.9 17.1v36h-48v-12h-48v36h72q10.2 0 17.1 6.9 6.9 6.9 6.9 17.1v60q0 10.2-6.9 17.1-6.9 6.9-17.1 6.9h-96Z"/></svg>